<?xml version="1.0" encoding="UTF-8" standalone="no"?>
<!-- Created with Inkscape (http://www.inkscape.org/) -->

<svg
   xmlns:dc="http://purl.org/dc/elements/1.1/"
   xmlns:cc="http://creativecommons.org/ns#"
   xmlns:rdf="http://www.w3.org/1999/02/22-rdf-syntax-ns#"
   xmlns:svg="http://www.w3.org/2000/svg"
   xmlns="http://www.w3.org/2000/svg"
   xmlns:sodipodi="http://sodipodi.sourceforge.net/DTD/sodipodi-0.dtd"
   xmlns:inkscape="http://www.inkscape.org/namespaces/inkscape"
   id="svg3336"
   version="1.1"
   inkscape:version="0.91 r13725"
   width="210"
   height="628.125"
   viewBox="0 0 210 628.125"
   sodipodi:docname="15thCenturyCostume7.svg">
  <metadata
     id="metadata3342">
    <rdf:RDF>
      <cc:Work
         rdf:about="">
        <dc:format>image/svg+xml</dc:format>
        <dc:type
           rdf:resource="http://purl.org/dc/dcmitype/StillImage" />
        <dc:title></dc:title>
      </cc:Work>
    </rdf:RDF>
  </metadata>
  <defs
     id="defs3340" />
  <sodipodi:namedview
     pagecolor="#ffffff"
     bordercolor="#666666"
     borderopacity="1"
     objecttolerance="10"
     gridtolerance="10"
     guidetolerance="10"
     inkscape:pageopacity="0"
     inkscape:pageshadow="2"
     inkscape:window-width="1600"
     inkscape:window-height="837"
     id="namedview3338"
     showgrid="false"
     inkscape:zoom="1.0666667"
     inkscape:cx="105"
     inkscape:cy="314.0625"
     inkscape:window-x="-8"
     inkscape:window-y="-8"
     inkscape:window-maximized="1"
     inkscape:current-layer="svg3336" />
  <path
     style="fill:#000000"
     d="m 126.09375,627.45435 c -3.35934,-0.46548 -13.6928,-3.99405 -14.95312,-5.10605 -0.48985,-0.43218 -2.38829,-0.80083 -4.21875,-0.81919 -7.249833,-0.0727 -20.715543,-4.37181 -27.320773,-8.72243 -6.679265,-4.39938 -8.087146,-8.74681 -4.655273,-14.37514 3.480613,-5.70826 3.171806,-6.15636 -4.331207,-6.28496 -12.158494,-0.20839 -14.419862,-4.10486 -10.304479,-17.75525 1.27224,-4.21992 2.585658,-8.72727 2.918708,-10.01633 0.33305,-1.28906 1.675513,-6.34166 2.983252,-11.228 2.701997,-10.09594 2.614545,-14.04179 -0.530322,-23.92825 -1.148136,-3.60938 -2.861256,-9.30469 -3.806932,-12.65625 -0.945676,-3.35156 -3.028465,-10.52344 -4.628418,-15.9375 -4.645256,-15.71903 -5.682892,-22.06018 -5.676086,-34.6875 0.0079,-14.65679 1.850582,-27.41538 4.771023,-33.03415 0.46537,-0.89535 0.85157,-2.37192 0.858222,-3.28125 0.0067,-0.90934 0.850402,-4.32765 1.875,-7.59625 2.188397,-6.98126 2.387208,-15.72273 0.755481,-33.21767 -0.675173,-7.23902 -1.493733,-11.84738 -2.070258,-11.6552 -1.113552,0.37118 -3.480556,6.28576 -5.704133,14.25327 -2.003161,7.17772 -11.522499,36.90001 -12.610868,39.375 -1.333627,3.03272 -4.53231,11.88677 -5.757706,15.9375 -0.623932,2.0625 -1.470149,4.59375 -1.880485,5.625 -0.410335,1.03125 -1.670803,4.61719 -2.80104,7.96875 -1.130237,3.35156 -2.36857,6.51562 -2.751853,7.03125 -0.383283,0.51562 -1.228713,2.625 -1.878733,4.6875 -0.65002,2.0625 -1.495027,4.17187 -1.877792,4.6875 -0.382765,0.51562 -4.189716,10.42969 -8.459892,22.03125 -4.2701757,11.60156 -8.1724303,21.62109 -8.6716775,22.26562 -1.2611197,1.62811 -4.37357488,1.46742 -5.0364595,-0.26003 -0.70018623,-1.82466 1.010521,-13.42071 2.9700799,-20.13272 2.9679304,-10.16596 7.1461781,-22.99658 8.0091191,-24.59452 0.483518,-0.89535 0.879122,-2.21019 0.879122,-2.92186 0,-0.71168 0.797187,-3.35411 1.771527,-5.8721 0.974341,-2.51797 2.235519,-6.26564 2.802619,-8.32814 4.933794,-17.94384 12.243776,-42.55032 13.178097,-44.35942 0.448256,-0.86794 1.338828,-3.47652 1.979049,-5.79683 0.640221,-2.32031 1.782679,-6.11719 2.538795,-8.4375 0.756118,-2.32031 2.138696,-7.17188 3.072397,-10.78125 3.397089,-13.13201 4.771913,-17.97979 7.577399,-26.71875 1.572555,-4.89844 3.246399,-9.30703 3.719654,-9.79688 0.473255,-0.48984 0.860463,-2.23273 0.860463,-3.87308 0,-2.7467 -0.329246,-3.06535 -4.165144,-4.03125 -2.290829,-0.57683 -4.98136,-1.04879 -5.978958,-1.04879 -2.616639,0 -3.755148,-1.79233 -5.780039,-9.09939 -1.657955,-5.98293 -1.69261,-6.98692 -0.446708,-12.94169 0.759627,-3.63064 1.352218,-11.60494 1.354189,-18.22288 0.0096,-32.0611 0.190312,-33.64385 5.198419,-45.51729 1.182934,-2.80455 5.223836,-24.59532 6.469729,-34.88836 0.553382,-4.57178 0.392297,-5.11819 -2.487471,-8.4375 -5.931075,-6.83633 -9.308552,-11.60547 -12.737569,-17.98598 -1.901734,-3.53864 -5.275381,-9.75359 -7.496994,-13.81102 -2.221613,-4.05742 -4.638672,-10.11933 -5.371241,-13.47089 -1.761093,-8.05713 -2.676218,-11.01805 -4.705932,-15.22619 -1.538681,-3.19009 -1.590411,-4.3776 -0.571738,-13.125 0.616003,-5.28966 1.979978,-12.35975 3.031055,-15.71131 1.051078,-3.35156 1.915938,-7.64561 1.921913,-9.54233 0.01,-3.17501 0.376622,-3.63983 4.621421,-5.85938 2.535806,-1.32593 5.57914,-2.41079 6.762963,-2.41079 1.183823,0 3.115658,-0.67469 4.292964,-1.49931 C 36.787843,104.0792 44.0625,93.675129 44.0625,91.347597 c 0,-1.870699 -0.624852,-2.077948 -8.091585,-2.683795 -7.528628,-0.610869 -11.825633,-2.094129 -13.657862,-4.714486 -1.048349,-1.499292 1.724035,-3.855466 8.93549,-7.594031 7.774921,-4.030677 10.938957,-6.625695 10.938957,-8.971706 0,-0.91552 -1.241729,-3.504474 -2.759397,-5.753233 -2.59029,-3.838082 -4.8358,-9.239465 -7.508896,-18.062011 -1.232847,-4.069008 -0.223713,-10.82791 3.580625,-23.98204 2.216806,-7.664978 3.409975,-9.9498778 5.514798,-10.5607528 7.948305,-2.3068071 9.989532,-2.4622866 19.969946,-1.5211029 10.023813,0.9452767 14.413525,2.2655304 18.005547,5.4153657 2.204657,1.933258 2.898491,1.009161 1.517689,-2.021367 -1.49381,-3.2785578 -0.614275,-3.9168093 3.626769,-2.631833 5.961932,1.806382 14.815357,8.332998 21.987199,16.208637 6.48171,7.117798 18.55653,25.219295 18.5628,27.827731 0.002,0.665073 0.84667,2.86311 1.87792,4.884527 2.24897,4.408349 2.42695,7.5 0.43177,7.5 -0.79379,0 -3.64144,-1.483513 -6.32813,-3.296696 l -4.88489,-3.296697 -0.5232,2.593572 c -0.28776,1.426464 -0.12026,3.530297 0.37222,4.675183 1.12434,2.613845 -0.59394,4.949638 -3.6411,4.949638 -1.66536,0 -2.41406,0.800372 -3.28864,3.515625 -0.62281,1.933594 -1.47216,3.948046 -1.88743,4.476561 -0.41529,0.528514 -1.05578,3.227896 -1.42332,5.998625 -0.38723,2.918981 -1.40202,5.77143 -2.4129,6.782314 -1.63923,1.639233 -1.95646,1.654207 -5.251383,0.247894 -7.173565,-3.061776 -8.245967,-3.319549 -11.371092,-2.733272 -3.405087,0.638798 -6.584313,3.646409 -6.635715,6.277519 -0.123676,6.330604 9.592227,12.918364 19.093079,12.945864 7.202801,0.0208 13.573101,2.36265 17.010351,6.25322 1.73927,1.96866 3.17989,4.05938 3.20135,4.64602 0.0808,2.20947 5.88725,13.46463 6.94625,13.46463 0.60802,0 4.68154,-1.79297 9.05226,-3.98438 7.0161,-3.51775 7.98383,-4.31029 8.26319,-6.76736 0.42844,-3.76834 3.24243,-7.49745 6.75573,-8.9527 2.63488,-1.0914 3.5363,-0.92334 9.79103,1.82541 7.51,3.3004 8.57952,3.19252 12.4275,-1.25345 2.40158,-2.7748 4.26382,-3.00937 8.08211,-1.01799 1.47691,0.77025 2.99947,1.40047 3.38348,1.40047 0.384,0 0.93835,-3.48047 1.23189,-7.73437 1.29007,-18.695548 2.73118,-38.019058 4.00276,-53.67188 0.75397,-9.28125 1.36681,-20.558576 1.36185,-25.060726 -0.0102,-9.257203 1.47876,-20.6646598 3.15238,-24.1513909 0.61699,-1.2854143 1.81964,-2.47150896 2.67256,-2.63576583 2.18243,-0.42029911 5.70701,3.33112923 4.95962,5.27882683 -0.65109,1.6966911 -3.9028,49.2485219 -5.23598,76.5690559 -0.4529,9.28125 -1.09253,19.46932 -1.4214,22.64016 l -0.59792,5.76515 3.41806,1.62198 c 3.88237,1.8423 9.5241,7.92101 11.40079,12.28386 1.3472,3.13188 0.87476,6.1309 -1.77211,11.2494 -2.20262,4.25938 -4.17836,5.45599 -9.85833,5.9707 -5.66631,0.51347 -7.46225,2.36896 -3.27767,3.38635 3.45384,0.83974 10.43573,5.82671 11.1036,7.931 0.83574,2.63316 -0.51165,6.376 -2.99989,8.33325 -1.89232,1.4885 -2.12247,2.13842 -1.3009,3.67354 1.31062,2.44892 1.27155,7.21748 -0.0802,9.78437 -0.59309,1.12625 -3.2973,4.26136 -6.00937,6.9669 l -4.93103,4.91915 -0.52025,7.7371 c -0.28614,4.2554 -0.75254,15.33084 -1.03645,24.61209 -0.2839,9.28125 -0.93315,25.3125 -1.44278,35.625 -0.50961,10.3125 -1.13805,25.5 -1.39651,33.75 -0.25846,8.25 -0.71273,17.74219 -1.00949,21.09375 -1.49645,16.90094 -3.49298,55.14978 -5.01592,96.09375 -0.47949,12.89062 -1.11978,27.23437 -1.42288,31.875 -0.30311,4.64062 -0.7444,20.67187 -0.98065,35.625 -0.75219,47.60913 -1.45374,74.91714 -1.99902,77.8125 -0.45638,2.42334 -1.04301,12.59925 -2.48607,43.125 -0.64733,13.6933 -4.29803,18.79868 -7.03525,9.83857 -1.32841,-4.3485 -1.07448,-20.3354 0.75936,-47.80732 0.43025,-6.44531 1.20572,-30.28125 1.72327,-52.96875 0.51754,-22.6875 1.201,-46.10156 1.51879,-52.03125 0.31781,-5.92969 0.78979,-20.48438 1.04886,-32.34375 1.57439,-72.06922 3.4949,-132.15853 5.03384,-157.5 0.56364,-9.28125 1.42949,-24.46875 1.92414,-33.75 0.49465,-9.28125 1.32581,-18.94889 1.84703,-21.48364 0.52123,-2.53474 0.73112,-4.82521 0.46642,-5.08989 -0.26469,-0.2647 -1.95833,0.2231 -3.76364,1.08399 -5.77409,2.75348 -10.30294,3.0137 -13.17205,0.75686 -1.38869,-1.09233 -2.88168,-1.98607 -3.31776,-1.98607 -0.43607,0 -3.03345,1.43329 -5.77195,3.18508 -6.86002,4.38831 -11.8435,5.79362 -15.73477,4.43711 -1.67191,-0.58283 -3.52124,-1.05969 -4.10962,-1.05969 -0.62025,0 -1.5755,3.29648 -2.27331,7.84498 -1.41512,9.22411 -0.53227,14.01121 3.23267,17.52858 1.34385,1.25548 3.04693,3.44285 3.78461,4.86081 1.85446,3.5646 3.89084,3.27004 4.62993,-0.66972 1.25818,-6.70663 6.42183,-7.40144 11.83976,-1.59314 1.96537,2.10699 3.57184,4.16363 3.5699,4.57031 -0.009,1.97457 -4.12672,7.14031 -6.37101,7.99322 -1.48405,0.56399 -3.21065,2.39594 -4.17235,4.42694 -2.06065,4.35182 -2.09708,3.97495 0.7926,8.19951 2.06325,3.01634 2.3538,4.24512 1.91083,8.08092 -0.34999,3.03056 -0.0311,5.75151 0.96601,8.24365 0.90946,2.27298 1.29854,5.13578 1.00024,7.35978 -0.3085,2.30003 0.0307,4.61444 0.92147,6.28761 3.64234,6.84142 3.5476,11.06651 -0.28075,12.52205 -2.7263,1.03653 -2.78139,2.50236 -0.36548,9.7244 2.26249,6.76341 2.47455,17.25923 0.42865,21.21557 -1.82794,3.53485 -5.31091,4.42948 -9.48868,2.43724 -1.76777,-0.84299 -4.47588,-1.53271 -6.01803,-1.53271 -3.43199,0 -4.63249,2.53363 -4.63249,9.77682 0,10.18494 -4.98128,29.26616 -10.41897,39.91068 -3.35779,6.57305 -5.75066,19.63494 -4.35711,23.78411 0.54209,1.61406 1.28812,3.35652 1.65783,3.87214 2.9994,4.18313 1.2546,11.37586 -4.1804,17.2332 -6.63718,7.15296 -6.7657,7.67588 -7.40045,30.11055 -0.41275,14.58823 -0.99594,21.58063 -2.11115,25.3125 -4.72207,15.8016 -7.349813,56.96591 -3.94356,61.77686 1.031,1.45617 1.40194,3.18563 1.05515,4.91955 -0.6575,3.28748 0.78455,5.1688 4.60511,6.00793 1.59604,0.35055 4.62549,1.58438 6.7321,2.74184 17.18327,9.44122 21.60708,12.71789 23.74574,17.5882 0.98761,2.24904 0.87663,2.79855 -0.89936,4.45312 -1.11429,1.03812 -3.14911,1.8875 -4.52181,1.8875 -8.96195,0 -12.46441,6.5702 -5.64873,10.59632 6.864,4.05467 13.5652,12.88236 16.7474,22.06185 1.29387,3.73236 -0.35878,8.75263 -3.42079,10.39137 -1.8302,0.97949 -8.88583,1.14411 -14.67225,0.34231 z m 14.52697,-6.35259 c 0.93321,-1.74374 0.99575,-2.89385 0.24675,-4.53774 -1.52234,-3.34117 -10.91385,-16.4749 -11.81461,-16.52236 -0.43499,-0.0229 -1.01386,0.81098 -1.28638,1.8531 -0.38932,1.48873 -0.7723,1.66503 -1.78724,0.82271 -0.71045,-0.58964 -1.29174,-1.76055 -1.29174,-2.60206 0,-2.4848 -6.6193,-12.69855 -12.4095,-19.14816 -3.80532,-4.23869 -6.08926,-7.88373 -7.80938,-12.46337 -1.33713,-3.55995 -2.97046,-7.10544 -3.62963,-7.87888 -3.439659,-4.03595 -6.113934,-18.79782 -6.114187,-33.75 -1.59e-4,-9.80176 1.372341,-24.14528 3.857419,-40.3125 1.434658,-9.3335 2.045358,-38.4444 0.871069,-41.5221 -1.210847,-3.17352 -2.587632,-2.66038 -8.095446,3.01722 -3.57044,3.68051 -5.107845,4.61268 -5.107845,3.09701 0,-1.61072 10.171575,-10.94109 14.7656,-13.54445 2.70701,-1.53402 5.1413,-3.14424 5.40954,-3.57824 0.26823,-0.43402 -1.31378,-1.14537 -3.5156,-1.58081 -4.847415,-0.95862 -4.786309,-2.19013 0.191,-3.84923 3.42513,-1.14171 7.63952,-4.9366 8.73346,-7.86413 0.32614,-0.87281 0.83021,-0.71312 1.82244,0.57734 3.61523,4.70179 4.85668,-4.1404 1.56463,-11.14394 -1.58544,-3.37288 -1.84264,-5.14187 -1.32752,-9.13041 0.62395,-4.83114 0.60149,-4.89561 -0.95882,-2.75256 -1.30918,1.79814 -1.48338,3.35495 -0.96456,8.6202 0.56357,5.71927 0.42135,6.63758 -1.29349,8.35242 -2.15802,2.15802 -4.73918,2.55495 -4.73918,0.72878 0,-0.65885 0.88386,-1.95468 1.96412,-2.87963 1.08026,-0.92495 1.71566,-1.93019 1.412,-2.23385 -0.30367,-0.30367 -1.40105,0.21614 -2.43862,1.15513 -2.75931,2.49714 -3.3291,1.05719 -1.04444,-2.63947 1.09007,-1.76376 1.98194,-4.77518 1.98194,-6.69203 0,-1.91686 1.23198,-6.08581 2.73773,-9.26435 6.15971,-13.00267 7.12199,-16.50838 6.86165,-24.9979 -0.1344,-4.38281 -0.47068,-9.23438 -0.7473,-10.78125 -0.47782,-2.67213 -0.43054,-2.72168 0.94749,-0.99269 0.93696,1.17557 1.46342,3.83068 1.48712,7.5 l 0.0367,5.68019 1.44877,-3.28125 c 1.48889,-3.37215 1.2275,-11.4051 -0.4815,-14.79745 -0.98476,-1.9548 -2.91562,-7.99293 -2.91562,-9.11776 0,-0.44734 0.84375,0.0923 1.875,1.19924 1.03125,1.10691 1.875,2.84906 1.875,3.87144 0,1.02238 0.42187,2.11961 0.9375,2.43828 1.28176,0.79217 1.20706,-4.51169 -0.0817,-5.80043 -0.72281,-0.72282 -0.72701,-1.19977 -0.0144,-1.64016 0.55262,-0.34154 1.85339,0.77096 2.89068,2.47231 1.66554,2.73178 1.88635,2.84676 1.88944,0.9839 0.002,-1.28399 0.57541,-2.10937 1.46509,-2.10937 0.80387,0 1.19024,-0.43903 0.8586,-0.97564 -0.33164,-0.53659 -1.35893,-0.7357 -2.28286,-0.44245 -1.14654,0.36389 -1.8303,-0.042 -2.15363,-1.27846 -0.26947,-1.03043 -2.61526,-2.83651 -5.43999,-4.18838 -5.33382,-2.55267 -6.66148,-2.37215 -10.89656,1.48154 -2.14079,1.94799 -4.3812,1.94715 -13.108764,-0.005 -3.284346,-0.73461 -4.60521,-0.53622 -8.306328,1.24756 -2.420525,1.16659 -5.250081,2.34312 -6.287904,2.61452 -1.600645,0.41857 -1.793351,0.99237 -1.270066,3.78171 0.504767,2.69065 0.281317,3.46786 -1.229466,4.27641 -2.56573,1.37286 -3.844652,1.23378 -3.844652,-0.41837 0,-0.77344 -0.421875,-1.40625 -0.9375,-1.40625 -1.742986,0 -0.951799,2.72336 1.433839,4.93545 2.949396,2.73484 4.170717,8.63221 4.802452,23.18955 0.405862,9.35243 0.13561,12.27218 -2.039215,22.03125 -2.664148,11.95479 -5.539041,26.57553 -9.300015,47.29674 -2.018377,11.12031 -0.885285,22.35398 3.4309,34.01455 1.076997,2.9096 0.333491,5.84966 -1.234278,4.88073 -1.202542,-0.74322 -0.243397,3.22151 1.136687,4.6986 1.187045,1.2705 1.030257,7.4425 -0.220845,8.6936 -1.022121,1.02213 -0.652509,3.72025 2.869981,20.95057 0.785443,3.84199 2.536404,9.15106 4.770718,14.46521 0.887772,2.11149 1.917853,5.47867 4.58879,15 2.61499,9.32189 3.218952,12.02215 2.992774,13.38041 -0.109254,0.6561 0.414743,1.8063 1.164439,2.55599 0.749694,0.7497 1.89129,4.31877 2.536879,7.93126 0.878498,4.91577 1.608474,6.70614 2.901596,7.11656 1.351635,0.429 1.73092,1.50412 1.742151,4.93833 0.01547,4.74293 1.38316,8.32876 2.200659,5.76992 0.242485,-0.75898 0.699422,-2.55738 1.015416,-3.99644 0.875663,-3.98779 2.406532,-2.0544 2.301122,2.90618 -0.360066,16.94492 -7.457358,9.44133 -10.693185,-11.30534 -0.30158,-1.93359 -0.855158,-3.51562 -1.230173,-3.51562 -0.900025,0 -2.743298,8.31069 -3.534862,15.9375 -0.684549,6.59571 -1.836866,9.74768 -3.245367,8.87718 -0.489755,-0.30268 -0.890463,0.1131 -0.890463,0.92396 0,0.81086 -0.501962,2.27807 -1.115471,3.26046 -1.254016,2.00799 0.268159,4.7509 2.636513,4.7509 0.710302,0 1.291458,0.35416 1.291458,0.78701 0,0.97421 4.748999,3.21399 5.410994,2.552 0.764071,-0.76407 -1.75006,-3.33901 -3.260161,-3.33901 -1.508696,0 -1.216786,-2.0301 0.367863,-2.55832 0.547393,-0.18246 2.208526,0.66885 3.691406,1.8918 1.482881,1.22295 4.805523,2.78244 7.383648,3.46551 2.578125,0.68307 5.10938,1.54077 5.625,1.90599 0.51563,0.36523 2.72885,0.93731 4.91828,1.27128 2.18942,0.33399 7.25192,2.23707 11.25,4.22908 9.44322,4.70503 9.21397,4.63436 15.31393,4.72064 4.65413,0.0658 5.37031,-0.18405 6.48226,-2.26172 z M 80.601796,425.09522 c -0.502863,-1.32263 -0.923677,-2.69372 -0.935142,-3.04688 -0.01147,-0.35314 -0.845834,-1.69678 -1.854154,-2.98584 -2.487932,-3.18064 -2.345591,-3.75 0.9375,-3.75 3.499409,0 3.573469,-1.15087 0.234375,-3.6421 l -2.578125,-1.9235 2.50601,-0.0297 c 1.58309,-0.0188 3.583301,1.04759 5.431189,2.89548 3.28031,3.28031 3.2661,5.17226 -0.03594,4.78507 -4.124231,-0.48359 -4.96128,0.4664 -2.815056,3.19488 2.029124,2.57962 2.645855,6.90737 0.984341,6.90737 -0.528387,0 -1.372137,-1.08215 -1.875,-2.40478 z m 89.292454,166.41411 c -0.24441,-2.54355 -0.0125,-5.15416 0.51542,-5.80136 0.5279,-0.64719 0.87609,-3.70797 0.77377,-6.80172 -0.10232,-3.09375 0.34715,-14.90625 0.9988,-26.25 1.46893,-25.5704 2.32297,-96.59896 1.14735,-95.42334 -0.46486,0.46486 -1.0679,7.99247 -1.34011,16.72801 -0.2722,8.73555 -0.69952,21.57814 -0.94961,28.53908 -0.25009,6.96094 -0.65117,23.83594 -0.89129,37.5 -0.24013,13.66406 -0.87109,29.48437 -1.40213,35.15625 -0.81508,8.70553 -0.82195,12.4845 -0.0409,22.5 0.0402,0.51562 0.42409,0.38405 0.85306,-0.29239 0.42898,-0.67644 0.57999,-3.31098 0.33559,-5.85453 z M 67.751224,584.0625 c 0.882983,-1.03125 2.634108,-1.875 3.891386,-1.875 4.058218,0 5.075077,-2.03649 4.545137,-9.10267 -0.262588,-3.50135 -0.848191,-6.76686 -1.30134,-7.25671 -0.495417,-0.53553 -0.823907,-0.13061 -0.823907,1.01563 0,3.26993 -1.251386,3.34245 -2.28889,0.13264 -0.545798,-1.68857 -1.414235,-2.98696 -1.92986,-2.88528 -1.023045,0.20172 -1.024797,0.20914 -1.877608,7.96097 -0.500711,4.55132 -0.887184,5.37608 -2.635817,5.625 -2.386074,0.33964 -3.356572,4.71392 -1.533275,6.91086 1.478859,1.78192 2.042706,1.70699 3.954174,-0.52544 z M 135,578.50575 c 0,-1.94722 -6.38274,-7.79001 -7.65258,-7.00521 -0.42306,0.26147 0.24922,1.49383 1.49395,2.73856 1.24473,1.24473 2.53526,3.12046 2.86782,4.16828 0.76828,2.42062 3.29081,2.49604 3.29081,0.0984 z m -13.5552,-3.75588 c -0.33988,-0.54993 -1.06659,-0.99987 -1.61492,-0.99987 -0.62165,0 -0.55053,0.53792 0.18893,1.42891 1.28582,1.54931 2.43499,1.20356 1.42599,-0.42904 z m -0.5073,-8.09809 c 0,-1.80466 -13.23644,-7.47784 -14.49967,-6.21461 -1.40747,1.40748 -0.0561,2.71365 3.9528,3.82044 2.44921,0.6762 5.50781,1.57875 6.79687,2.00566 2.95641,0.9791 3.75,1.06132 3.75,0.38851 z M 76.372496,535.08955 c -1.529427,-2.07613 -1.548672,-2.04196 -0.913557,1.62206 0.852203,4.91641 1.811867,6.26564 2.180354,3.06544 0.162549,-1.41168 -0.407511,-3.52105 -1.266797,-4.6875 z M 13.395623,494.7603 c 4.531654,-12.50098 8.818609,-23.99468 9.526565,-25.54155 3.033662,-6.62851 4.46472,-14.40705 2.417797,-13.14199 -0.500509,0.30933 -1.183987,-0.52916 -1.518841,-1.86333 -0.334854,-1.33416 -0.800567,-2.23401 -1.034918,-1.99966 -0.234351,0.23435 -2.947748,7.74228 -6.02977,16.68429 -4.797315,13.91866 -7.0781888,20.87587 -13.035775,39.76225 -1.4873332,4.71506 -1.0710308,8.85345 0.888694,8.83436 0.3007813,-0.003 4.2545926,-10.2334 8.786248,-22.73437 z m 46.170649,-8.22077 -1.458491,-3.25828 0.531374,3.75 c 0.292255,2.0625 0.804363,4.80469 1.138016,6.09375 0.591171,2.28397 0.614817,2.27143 0.927118,-0.49172 0.176261,-1.55951 -0.335847,-4.3017 -1.138017,-6.09375 z m 10.449147,6.40969 c -0.299274,-0.74787 -0.521421,-0.52573 -0.566406,0.56641 -0.04071,0.98827 0.18087,1.54199 0.492394,1.23047 0.311522,-0.31153 0.344829,-1.12013 0.07402,-1.79688 z M 61.577784,468.75 c 0.144715,-1.28906 0.641018,-6.14063 1.102896,-10.78125 0.461877,-4.64063 1.527141,-11.60156 2.367251,-15.46875 0.840111,-3.86719 1.967075,-9.14063 2.504367,-11.71875 0.53729,-2.57813 1.353673,-6.375 1.814184,-8.4375 1.341339,-6.00749 1.894191,-13.711 0.941741,-13.12236 -0.47333,0.29254 -1.114736,2.09911 -1.425346,4.01462 -0.962371,5.93486 -2.102883,7.89687 -4.202966,7.23033 -1.587834,-0.50396 -1.867411,-0.16217 -1.867411,2.28298 0,3.36212 1.350257,3.80178 2.353423,0.7663 l 0.697107,-2.10937 0.433273,2.24929 c 0.238302,1.2371 0.02189,3.13554 -0.480905,4.21875 -0.502799,1.0832 -1.428944,3.8679 -2.0581,6.18821 -1.778654,6.55963 -2.927585,8.65419 -2.314118,4.21875 1.385886,-10.02012 1.513111,-12.14693 0.672971,-11.25 -0.482974,0.51562 -1.318698,2.20312 -1.857165,3.75 -4.905511,14.09226 -6.432465,36.06922 -2.653035,38.18429 0.801102,0.44832 1.469378,1.95432 1.485057,3.34667 0.02679,2.37945 0.09445,2.4189 1.126083,0.65654 0.603666,-1.03125 1.215978,-2.92969 1.360693,-4.21875 z m -3.756623,-3.48317 c -0.309818,-0.5013 -0.288014,-2.55937 0.04845,-4.57352 l 0.611761,-3.66206 0.685065,3.26279 c 0.682634,3.2512 -0.258718,6.73088 -1.345281,4.97279 z m 1.255695,-14.50837 c 0.0079,-2.22184 0.42331,-4.67252 0.923144,-5.44596 0.651321,-1.00785 0.912856,-0.0276 0.923144,3.46029 0.0079,2.6766 -0.407519,5.12729 -0.923144,5.44596 -0.570326,0.35248 -0.931878,-1.00275 -0.923144,-3.46029 z m 46.338664,-2.38922 c -0.88297,-9.17974 -2.57785,-8.47571 -1.95776,0.81322 0.28817,4.31683 0.59961,10.80192 0.6921,14.41129 l 0.16814,6.5625 0.83008,-7.96875 c 0.45654,-4.38281 0.57689,-10.60103 0.26744,-13.81826 z M 27.1875,453.75 c 0,-0.51563 -0.421875,-0.9375 -0.9375,-0.9375 -0.515625,0 -0.9375,0.42187 -0.9375,0.9375 0,0.51562 0.421875,0.9375 0.9375,0.9375 0.515625,0 0.9375,-0.42188 0.9375,-0.9375 z m 148.125,-4.21875 c 0,-1.16279 -0.63281,-2.63935 -1.40625,-3.28125 -1.2164,-1.00952 -1.40625,-0.56653 -1.40625,3.28125 0,3.84778 0.18985,4.29077 1.40625,3.28125 0.77344,-0.6419 1.40625,-2.11846 1.40625,-3.28125 z M 29.580948,448.73509 c 0.378659,-1.10899 0.738701,-2.51391 0.800093,-3.12205 0.0614,-0.60813 0.422649,-1.41673 0.802791,-1.79687 1.155229,-1.15523 0.775906,-2.25367 -0.778258,-2.25367 -1.021735,0 -1.307364,-0.57126 -0.9375,-1.875 0.29256,-1.03125 0.77115,-2.82422 1.063533,-3.98438 1.265601,-5.0218 2.584181,-7.26562 4.26963,-7.26562 0.968695,0 1.761263,-0.42188 1.761263,-0.9375 0,-0.51563 -0.84375,-0.9375 -1.875,-0.9375 -2.22665,0 -2.489879,-1.43844 -0.409329,-2.23683 0.806118,-0.30934 1.221112,-0.95813 0.922207,-1.44177 -0.298905,-0.48364 -0.114706,-1.14433 0.409329,-1.4682 0.524037,-0.32387 0.959253,0.17432 0.967149,1.10709 0.01198,1.41531 0.15927,1.4668 0.890072,0.31112 0.599132,-0.94745 0.400657,-1.90977 -0.628407,-3.04687 -1.655352,-1.82915 -0.383997,-2.33251 1.395854,-0.55267 1.381639,1.38164 1.664242,1.05631 2.388775,-2.75 0.495824,-2.60478 0.311324,-3.04687 -1.271588,-3.04687 -1.018359,0 -1.851562,-0.42188 -1.851562,-0.9375 0,-0.51563 1.089844,-0.9375 2.421875,-0.9375 1.520834,0 2.276546,-0.43598 2.03125,-1.17188 -0.214844,-0.64453 -0.8982,-1.17187 -1.51857,-1.17187 -0.620369,0 -1.510209,-0.61852 -1.977422,-1.37449 -1.018591,-1.6481 -1.540296,-0.44253 -6.274535,14.49949 -1.79708,5.67187 -4.087291,12.84375 -5.089358,15.9375 -1.002067,3.09375 -2.260962,6.99364 -2.797546,8.66641 -0.536584,1.67277 -0.74832,3.40916 -0.470526,3.85865 0.913133,1.47748 5.052718,-0.0122 5.75578,-2.07122 z M 175.13972,437.34375 c 0.0572,-3.35428 -0.30212,-6.09375 -0.79919,-6.09375 -0.49667,0 -0.90303,2.74219 -0.90303,6.09375 0,3.35156 0.35963,6.09375 0.79919,6.09375 0.43955,0 0.84592,-2.74219 0.90303,-6.09375 z M 32.8125,438.75 c 0,-0.51563 -0.421875,-0.9375 -0.9375,-0.9375 -0.515625,0 -0.9375,0.42187 -0.9375,0.9375 0,0.51562 0.421875,0.9375 0.9375,0.9375 0.515625,0 0.9375,-0.42188 0.9375,-0.9375 z m 143.85414,-24.60938 c 0.51622,-3.61589 0.37136,-4.45312 -0.7705,-4.45312 -1.56174,0 -3.14492,7.50612 -1.98054,9.39012 1.05486,1.7068 2.06009,-0.0972 2.75104,-4.937 z M 66.159269,409.10818 c 0.377458,-2.51731 1.261098,-4.99881 1.963645,-5.51443 1.668203,-1.22436 3.428702,-11.79214 2.173561,-13.04727 -1.446751,-1.44675 -1.078049,-4.97329 0.586753,-5.61214 1.271207,-0.48781 1.417375,-1.64538 0.930102,-7.36593 -1.231175,-14.45388 -1.691248,-18.06384 -2.396409,-18.80338 -0.401832,-0.42141 -1.496509,2.53171 -2.432616,6.5625 -0.936108,4.0308 -2.092149,7.5926 -2.56898,7.91511 -0.519647,0.35148 -0.399619,2.41714 0.299608,5.15625 1.61722,6.33519 2.27316,19.10111 0.981455,19.10111 -0.608085,0 -1.008888,-2.23465 -1.008888,-5.625 0,-3.6197 -0.385007,-5.625 -1.079969,-5.625 -0.785631,0 -0.913385,2.72259 -0.46875,9.98959 0.336171,5.49427 0.63796,12.56068 0.670643,15.70312 0.06667,6.40954 1.16183,5.08848 2.349845,-2.83453 z m -1.397756,-7.46755 c 0.04498,-1.09214 0.267132,-1.31428 0.566406,-0.56641 0.270817,0.67675 0.23751,1.48535 -0.07401,1.79688 -0.311524,0.31152 -0.533101,-0.2422 -0.492394,-1.23047 z M 66.5625,377.8125 c 0,-1.03125 0.421875,-1.875 0.9375,-1.875 0.515625,0 0.9375,0.84375 0.9375,1.875 0,1.03125 -0.421875,1.875 -0.9375,1.875 -0.515625,0 -0.9375,-0.84375 -0.9375,-1.875 z m -22.943943,28.30606 c -0.288644,-0.28865 -1.045119,-6e-4 -1.681057,0.64011 -0.919001,0.92589 -0.811316,1.03357 0.524807,0.52481 0.924583,-0.35206 1.444895,-0.87627 1.15625,-1.16492 z M 44.53125,403.125 c 0.318674,-0.51563 -0.0783,-0.9375 -0.882172,-0.9375 -0.803867,0 -1.461578,-0.42188 -1.461578,-0.9375 0,-0.51563 0.632812,-0.9375 1.40625,-0.9375 0.773437,0 1.40625,-0.40864 1.40625,-0.90808 0,-0.49944 -0.632813,-0.66524 -1.40625,-0.36845 -0.890478,0.34171 -1.40625,-0.0129 -1.40625,-0.96692 0,-0.82861 0.421875,-1.50655 0.9375,-1.50655 0.515625,0 0.9375,-0.82279 0.9375,-1.82842 0,-1.00562 0.557724,-2.16578 1.239388,-2.57812 0.808023,-0.48878 1.016083,-1.56545 0.597795,-3.09346 -0.605015,-2.21013 -0.685725,-2.23685 -1.415665,-0.46875 -0.42574,1.03125 -1.276597,2.29687 -1.890794,2.8125 -0.614198,0.51562 -1.358711,2.85502 -1.654474,5.19863 -0.295763,2.34363 -0.813736,4.98035 -1.151052,5.85938 -0.47901,1.24828 -0.09025,1.59824 1.775421,1.59824 1.313799,0 2.649457,-0.42188 2.968131,-0.9375 z m 132.25784,-15.0836 c 0.0387,-6.39933 -0.2373,-12.05703 -0.6133,-12.57265 -0.376,-0.51563 -0.8629,-1.99219 -1.08201,-3.28125 -0.2191,-1.28906 -0.45234,2.76987 -0.51831,9.01985 -0.066,6.24998 -0.18803,11.73436 -0.27123,12.1875 -0.54556,2.97125 0.20917,7.02711 1.24263,6.67781 0.84804,-0.28664 1.19131,-3.61139 1.24222,-12.03126 z M 48.75,384.78842 c 0,-0.80387 -0.428756,-1.19659 -0.952793,-0.87272 -0.524035,0.32387 -0.710075,0.98158 -0.413421,1.46158 0.803662,1.30035 1.366214,1.05789 1.366214,-0.58886 z m 127.28738,-26.42905 c 0.0795,-3.99609 0.34856,-9.16406 0.59791,-11.48437 0.61108,-5.68602 -0.38576,-13.37116 -1.39798,-10.77786 -0.97602,2.50056 -1.07064,29.52786 -0.10339,29.52786 0.41742,0 0.82397,-3.26953 0.90346,-7.26563 z M 64.6875,351.09375 c 0,-1.80469 -0.421875,-3.28125 -0.9375,-3.28125 -0.515625,0 -0.9375,1.47656 -0.9375,3.28125 0,1.80469 0.421875,3.28125 0.9375,3.28125 0.515625,0 0.9375,-1.47656 0.9375,-3.28125 z M 51.323132,340.07258 c 0.641784,-0.50538 2.012458,-0.69775 3.045941,-0.42749 2.873097,0.75134 3.173102,-0.93197 0.480529,-2.69622 -2.173807,-1.42433 -2.548568,-1.43464 -4.014249,-0.11041 -0.889131,0.80332 -3.271492,1.5972 -5.294134,1.76419 -2.022643,0.16698 -3.839925,0.79841 -4.038406,1.40319 -0.699204,2.13049 7.13198,2.18371 9.820319,0.0668 z m 17.160924,0.6846 c 1.521269,-0.78668 2.765944,-2.0523 2.765944,-2.8125 0,-2.04327 -1.486013,-1.68594 -4.176136,1.00418 -3.606908,3.60691 -3.164632,4.17405 1.410192,1.80832 z M 84.1875,337.3125 c 1.264353,-1.26435 1.486515,-2.63572 0.421875,-2.60415 -0.386719,0.0114 -1.757813,0.84583 -3.046875,1.85415 -2.191687,1.71436 -2.219058,1.83466 -0.421875,1.85415 1.057031,0.0114 2.428125,-0.4854 3.046875,-1.10415 z m 20.40853,-0.85481 c 0.9455,-1.52985 -1.58062,-2.81136 -4.28161,-2.17207 -3.092454,0.73196 -3.514976,1.2604 -1.84977,2.3135 1.89787,1.20024 5.35141,1.12058 6.13138,-0.14143 z M 44.0625,335.68033 c 0,-1.34676 -1.535082,-2.00192 -3.196648,-1.36432 -2.289017,0.87838 -1.769603,2.24649 0.852898,2.24649 1.289062,0 2.34375,-0.39698 2.34375,-0.88217 z m 22.321638,-3.53323 c 0.191852,-1.97794 0.907614,-3.1897 2.109375,-3.57112 1.000443,-0.31754 1.818987,-1.18171 1.818987,-1.92041 0,-0.73868 0.632812,-1.34307 1.40625,-1.34307 1.691471,0 1.741671,0.42585 0.318785,2.70425 -1.110231,1.77776 -0.99808,2.02802 2.793196,6.23267 1.529686,1.69649 4.14977,0.51362 6.370841,-2.87615 1.8341,-2.7992 2.64692,-2.86101 5.730111,-0.43577 1.43201,1.12642 3.803235,1.875 5.939299,1.875 2.893509,0 3.99734,-0.56441 5.927718,-3.03098 l 2.3721,-3.03098 2.96334,3.03098 c 1.62984,1.66704 3.77799,3.03098 4.77366,3.03098 2.39135,0 6.44714,-2.14458 8.64158,-4.56941 2.146,-2.3713 3.38565,-1.79522 3.39543,1.57787 0.014,4.81974 6.02185,5.5031 7.75574,0.88217 0.33858,-0.90235 1.4157,-1.64063 2.3936,-1.64063 0.9779,0 2.85065,-0.84375 4.16167,-1.875 3.23625,-2.54564 3.64824,-2.42646 6.26874,1.81361 3.66706,5.93343 8.68877,5.82462 9.66797,-0.20947 0.62435,-3.84745 -0.46397,-9.722 -1.69972,-9.1747 -0.49448,0.219 -1.32094,-2.51888 -1.83656,-6.08419 -0.71895,-4.97123 -1.31995,-6.55527 -2.57813,-6.79506 -1.06977,-0.20388 -1.651,0.28209 -1.67043,1.3967 -0.0277,1.58944 -0.12851,1.57879 -1.43639,-0.15166 -1.39036,-1.83958 -1.41288,-1.83687 -1.95452,0.23437 -0.54419,2.08096 -2.20428,2.95301 -2.20428,1.1579 0,-0.51563 -0.56205,-0.9375 -1.249,-0.9375 -0.93754,0 -1.14462,1.25887 -0.83038,5.04808 0.23024,2.77644 -0.0386,5.83504 -0.59749,6.79688 -0.79975,1.37642 -1.02219,0.326 -1.04462,-4.9333 -0.0318,-7.45162 -1.51748,-10.11468 -4.3373,-7.77443 -1.3081,1.08562 -1.45548,0.95505 -1.17187,-1.03822 0.34099,-2.39656 1.91986,-3.16574 8.76191,-4.26859 3.21489,-0.5182 3.46321,-0.71357 1.74021,-1.36914 -1.12528,-0.42815 -4.73554,-0.29779 -8.20313,0.29619 -5.58726,0.95705 -6.19333,1.27777 -6.19333,3.27737 0,1.66194 -0.41048,2.10093 -1.64062,1.75457 -5.74601,-1.61784 -7.59728,-1.61791 -8.50254,-3e-4 -0.7658,1.36841 -1.1739,1.44731 -2.36646,0.45758 -0.7926,-0.65779 -2.20452,-1.10037 -3.1376,-0.98351 -0.9331,0.11686 -2.40709,-0.0978 -3.27555,-0.47701 -1.15039,-0.50233 -4.11635,1.36725 -10.926058,6.88717 -5.14087,4.16716 -10.025877,7.57666 -10.855574,7.57666 -0.829697,0 -2.359437,-0.52734 -3.399424,-1.17188 -1.544307,-0.95708 -2.041769,-0.92939 -2.71409,0.15105 -0.520048,0.83575 -0.768449,-0.7516 -0.674519,-4.31035 0.08524,-3.2294 0.705767,-6.30396 1.454155,-7.20496 0.718007,-0.86442 1.042399,-1.83474 0.72087,-2.15627 -0.32153,-0.32153 -5.037793,-0.0568 -10.480583,0.5882 -8.973606,1.06349 -24.125886,0.77042 -28.811382,-0.55726 -1.285156,-0.36415 -1.639283,0.1074 -1.63443,2.17642 0.0034,1.45272 -0.479758,5.8344 -1.073702,9.73706 -0.593944,3.90267 -0.788552,8.64876 -0.432464,10.54687 0.607335,3.23738 0.86254,3.4515 4.120577,3.45732 1.910229,0.004 6.742675,-0.49147 10.738769,-1.09971 l 7.265625,-1.1059 0,-3.11905 c 0,-1.71547 0.421875,-3.11904 0.9375,-3.11904 1.338823,0 1.164741,6.33051 -0.186469,6.78091 -1.712796,0.57093 2.860046,6.5072 4.73878,6.15168 0.966961,-0.18298 1.649663,-1.40745 1.831827,-3.28549 z M 45.9375,323.4375 c 0,-2.96004 0.359145,-4.57619 0.9375,-4.21875 0.515625,0.31867 0.9375,2.21711 0.9375,4.21875 0,2.00164 -0.421875,3.90008 -0.9375,4.21875 -0.578355,0.35744 -0.9375,-1.25871 -0.9375,-4.21875 z m -5.596288,-2.8125 c 0,-2.83594 0.408954,-5.78906 0.908788,-6.5625 0.647017,-1.00118 0.908788,0.0789 0.908788,3.75 0,2.83594 -0.408954,5.78906 -0.908788,6.5625 -0.647017,1.00118 -0.908788,-0.0789 -0.908788,-3.75 z m 78.721288,-4.74283 c 0,-4.17315 0.34632,-6.40379 0.9375,-6.03842 0.51563,0.31867 0.9375,3.2967 0.9375,6.61783 0,3.40061 -0.40954,6.03842 -0.9375,6.03842 -0.53646,0 -0.9375,-2.83094 -0.9375,-6.61783 z m -17.62973,3.33658 c 0.0191,-1.54688 0.22921,-2.06619 0.46691,-1.15403 0.23769,0.91215 0.22206,2.17778 -0.0347,2.8125 -0.25681,0.63471 -0.45128,-0.1116 -0.43218,-1.65847 z m -47.263249,-6.51327 c -0.651503,-3.57603 -0.36508,-5.15104 0.736428,-4.04953 0.292022,0.29202 0.397491,2.1553 0.234375,4.14062 l -0.296574,3.60968 -0.674229,-3.70077 z m 47.172439,-0.0492 c 0.0305,-3.2719 0.15917,-3.49332 1.00937,-1.73675 0.68032,1.40562 0.66978,2.53745 -0.035,3.75 -0.83976,1.44492 -1.00349,1.10664 -0.97442,-2.01325 z M 67.03125,310.3125 c -0.318674,-0.51563 -0.132634,-0.9375 0.413422,-0.9375 0.546055,0 0.992828,0.42187 0.992828,0.9375 0,0.51562 -0.186039,0.9375 -0.413422,0.9375 -0.227382,0 -0.674154,-0.42188 -0.992828,-0.9375 z m 65.15625,22.96875 c 0,-0.77344 -0.42188,-1.40625 -0.9375,-1.40625 -0.51563,0 -0.9375,0.63281 -0.9375,1.40625 0,0.77344 0.42187,1.40625 0.9375,1.40625 0.51562,0 0.9375,-0.63281 0.9375,-1.40625 z m 45,-8.85092 c 0,-4.61019 0.42187,-8.64291 0.9375,-8.96158 0.53355,-0.32975 0.97777,0.5553 1.03095,2.05404 l 0.0935,2.63346 L 180,317.8125 c 1.14233,-3.56694 1.06781,-14.9759 -0.13701,-20.97514 -0.91448,-4.55356 -0.82614,-6.17061 0.5932,-10.85836 1.08944,-3.59818 1.41924,-6.42943 0.95117,-8.16539 -0.39409,-1.46154 -0.66598,-4.5558 -0.60419,-6.87611 0.52186,-19.5972 0.99941,-27.17685 1.80793,-28.69605 0.90947,-1.70887 1.49687,-8.7939 1.25522,-15.14002 -0.10705,-2.81137 -0.26575,-2.9615 -1.99132,-1.88386 -1.51725,0.94754 -1.875,2.18627 -1.875,6.49231 0,3.41348 0.42016,5.46834 1.17187,5.73128 0.87694,0.30674 0.79038,0.85729 -0.34392,2.1875 -0.98329,1.15312 -1.45533,3.25964 -1.3437,5.99634 0.0947,2.32031 -0.18234,9.70313 -0.61555,16.40625 -3.52928,54.60852 -4.15097,70.78125 -2.72088,70.78125 0.68372,0 1.03968,-2.86985 1.03968,-8.38217 z m 0,-15.99283 c 0,-1.03125 0.42187,-1.875 0.9375,-1.875 0.51562,0 0.9375,0.84375 0.9375,1.875 0,1.03125 -0.42188,1.875 -0.9375,1.875 -0.51563,0 -0.9375,-0.84375 -0.9375,-1.875 z M 88.678778,301.17878 C 88.028625,300.52863 86.25,301.8496 86.25,302.98262 c 0,0.62166 0.537921,0.55053 1.428906,-0.18893 0.785897,-0.65223 1.23584,-1.37895 0.999872,-1.61491 z M 43.59375,300.9375 C 43.932702,300.38906 42.960042,300 41.25,300 c -1.710042,0 -2.682702,0.38906 -2.34375,0.9375 0.318674,0.51562 1.373362,0.9375 2.34375,0.9375 0.970388,0 2.025076,-0.42188 2.34375,-0.9375 z m 74.45313,0.60064 c -1.11978,-0.96567 -5.54688,-1.45931 -5.54688,-0.6185 0,0.52545 1.33594,0.95536 2.96875,0.95536 1.63281,0 2.79297,-0.15159 2.57813,-0.33686 z m -13.8013,-15.72352 c 2.63209,-3.02616 5.14422,-5.50212 5.58252,-5.50212 1.64413,0 0.69044,1.91896 -2.5781,5.1875 -1.85625,1.85625 -3.15747,3.59252 -2.89162,3.85839 0.57686,0.57684 12.32911,-11.07379 13.03169,-12.919 0.81153,-2.13141 -0.95095,-5.50189 -2.87704,-5.50189 -0.98856,0 -2.43842,0.94922 -3.2219,2.10937 -0.78349,1.16016 -3.39021,4.21875 -5.79274,6.79688 -6.383978,6.85058 -12.073402,13.66686 -14.084533,16.8741 -1.604411,2.55862 -1.321758,2.44214 3.141549,-1.29475 2.697516,-2.2585 7.058104,-6.5823 9.690174,-9.60848 z M 132.1875,296.25 c 0,-0.541 -2.9503,-0.9375 -6.97592,-0.9375 -3.83676,0 -7.23665,0.42187 -7.55533,0.9375 -0.36796,0.59538 2.17777,0.9375 6.97592,0.9375 4.41188,0 7.55533,-0.39006 7.55533,-0.9375 z m -26.25,-0.9375 c 0,-0.51563 -0.44678,-0.9375 -0.99283,-0.9375 -0.54606,0 -0.7321,0.42187 -0.41342,0.9375 0.31868,0.51562 0.76545,0.9375 0.99283,0.9375 0.22738,0 0.41342,-0.42188 0.41342,-0.9375 z m -61.875,-1.875 c 0,-0.51563 -0.868648,-0.9375 -1.930328,-0.9375 -1.061681,0 -1.669596,0.42187 -1.350922,0.9375 0.318674,0.51562 1.187321,0.9375 1.930328,0.9375 0.743008,0 1.350922,-0.42188 1.350922,-0.9375 z m 26.25,-1.94168 c 2.942605,-0.89099 1.998933,-0.99795 -10.54691,-1.19559 -9.094982,-0.14326 -10.628756,0.29328 -7.499965,2.13464 1.701332,1.00128 13.700799,0.3769 18.046875,-0.93905 z m 73.125,-0.87082 c 0,-0.55961 -3.6122,-0.9375 -8.96158,-0.9375 -5.73565,0 -8.75301,0.33747 -8.38217,0.9375 0.31868,0.51562 4.35139,0.9375 8.96158,0.9375 4.96312,0 8.38217,-0.38241 8.38217,-0.9375 z m -4.6875,-3.70594 c 0,-0.76393 -5.61951,-2.83561 -7.73438,-2.85133 -1.49183,-0.0111 -0.60379,1.63115 1.40625,2.60056 2.65914,1.28244 6.32813,1.42785 6.32813,0.25077 z m -77.798144,-6.95023 c 0.0079,-3.16254 0.42331,-6.38289 0.923144,-7.15633 0.629909,-0.97472 0.913193,0.83084 0.923144,5.8838 l 0.01436,7.29003 14.296875,-0.25878 14.296875,-0.2588 0.03677,-6.86367 c 0.02022,-3.77502 -0.401653,-7.13786 -0.9375,-7.47296 C 89.485374,270.49415 88.014941,270.35389 75,269.65304 c -4.382813,-0.23602 -9.21064,-0.90794 -10.728506,-1.49317 -1.517865,-0.58525 -4.049115,-0.93797 -5.625,-0.78385 -2.801242,0.27397 -2.878669,0.41635 -3.466245,6.37398 -0.330552,3.35156 -0.902716,7.42528 -1.271478,9.05271 -0.728696,3.21588 0.562134,4.08077 4.919354,3.29609 1.914969,-0.34487 2.110698,-0.90983 2.123731,-6.12997 z m -5.101295,3.26831 c -0.290948,-0.47075 0.08527,-2.2706 0.836025,-3.99966 l 1.365023,-3.14373 0.03669,3.46029 c 0.03587,3.38208 -1.18346,5.38898 -2.237744,3.6831 z m 9.643398,-1.67464 c -0.28506,-3.73887 0.345366,-9.266 1.153075,-10.10938 0.517748,-0.5406 0.908233,1.02527 0.993591,3.98438 0.07734,2.68125 0.182812,5.36719 0.234375,5.96875 0.05156,0.60156 -0.433594,1.26953 -1.078125,1.48437 -0.644531,0.21485 -1.230844,-0.3828 -1.302916,-1.32812 z m 18.196699,-4.05078 c 0.499941,-5.36416 1.621842,-5.80461 1.621842,-0.63672 0,2.43267 -0.437357,4.375 -0.985126,4.375 -0.58205,0 -0.84257,-1.52957 -0.636716,-3.73828 z m 36.022022,4.06336 c 2.23437,-2.39933 3.82936,-4.59553 3.54445,-4.88045 -0.46713,-0.46713 -8.88213,7.92027 -8.88213,8.853 0,1.19131 1.72312,-0.0911 5.33768,-3.97255 z m -72.0111,-6.18446 c 0.06101,-1.41796 -0.310955,-2.57812 -0.82658,-2.57812 -0.529164,0 -0.889188,2.34793 -0.82658,5.39062 0.09128,4.43656 0.237583,4.89285 0.82658,2.57813 0.393613,-1.54688 0.765574,-3.97266 0.82658,-5.39063 z m 3.86092,5.80405 c 0,-1.06168 -0.421875,-1.66959 -0.9375,-1.35092 -0.515625,0.31867 -0.9375,1.18732 -0.9375,1.93033 0,0.74301 0.421875,1.35092 0.9375,1.35092 0.515625,0 0.9375,-0.86865 0.9375,-1.93033 z m 45,-6.45184 c 0,-1.00082 -0.421875,-2.08041 -0.9375,-2.39908 -0.531712,-0.32861 -0.9375,0.45902 -0.9375,1.81967 0,1.31949 0.421875,2.39908 0.9375,2.39908 0.515625,0 0.9375,-0.81885 0.9375,-1.81967 z m -48.75,-6.20441 c 0,-0.80387 -0.421875,-1.20084 -0.9375,-0.88217 -0.515625,0.31867 -0.9375,0.97639 -0.9375,1.46158 0,0.48519 0.421875,0.88217 0.9375,0.88217 0.515625,0 0.9375,-0.65771 0.9375,-1.46158 z m 85.78125,-3.22592 c 1.66454,-1.83929 1.63747,-1.875 -1.4215,-1.875 -4.03455,0 -6.54725,-2.32246 -6.54725,-6.05155 0,-3.47425 -1.4431,-5.19845 -4.35092,-5.19845 -1.15551,0 -2.36165,-0.42188 -2.68033,-0.9375 -0.68578,-1.10962 -6.09375,-1.27602 -6.09375,-0.1875 0,1.45186 2.27384,3 4.40625,3 1.80025,0 2.15625,0.49472 2.15625,2.99648 0,1.7106 1.06049,4.52677 2.47125,6.5625 2.1992,3.17345 2.90565,3.56602 6.4172,3.56602 2.75533,0 4.45794,-0.56574 5.6428,-1.875 z m -44.362079,-1.16229 c 0.395439,-2.7717 3.580829,-3.46685 3.580829,-0.78145 0,1.06905 0.421875,1.94374 0.9375,1.94374 1.424784,0 1.193447,-10.28826 -0.234375,-10.42352 -1.61068,-0.15259 -1.902288,-0.10866 -3.554546,0.5356 -1.080128,0.42118 -1.435341,-0.0511 -1.40625,-1.86948 l 0.03893,-2.43301 -10.3125,-0.37216 c -5.671875,-0.2047 -10.892747,-0.0129 -11.601938,0.42632 -0.812324,0.50302 -1.464786,3.24919 -1.763329,7.42173 l -0.473893,6.62325 6.45083,0.33077 c 17.638335,0.90439 18.013821,0.87569 18.338751,-1.40179 z M 67.528712,261.5625 c 0,-0.77344 0.408954,-2.03906 0.908788,-2.8125 0.807812,-1.25 0.908788,-1.25 0.908788,0 0,0.77344 -0.408954,2.03906 -0.908788,2.8125 -0.807812,1.25 -0.908788,1.25 -0.908788,0 z m -5.822541,-3.49899 c 0.57887,-3.49336 0.687997,-6.66934 0.244402,-7.11294 -1.271711,-1.27171 -1.970951,0.69968 -2.586595,7.29246 -0.765569,8.19829 0.976064,8.0648 2.342193,-0.17952 z m 49.856329,3.55432 c 0,-0.48519 -0.42187,-1.14291 -0.9375,-1.46158 -0.51562,-0.31867 -0.9375,0.0783 -0.9375,0.88217 0,0.80387 0.42188,1.46158 0.9375,1.46158 0.51563,0 0.9375,-0.39698 0.9375,-0.88217 z m -56.233815,-5.21158 c 0.22987,-5.20893 0.08898,-5.83217 -0.953685,-4.21875 -1.177845,1.82258 -1.247338,10.06981 -0.07465,8.85937 0.474566,-0.48984 0.937318,-2.57812 1.028336,-4.64062 z m -5.734635,-2.16471 c -0.07651,-3.60073 -0.229491,-3.973 -0.84405,-2.05404 -1.100989,3.43784 -1.100989,7.7117 0,7.03125 0.515625,-0.31867 0.895447,-2.55842 0.84405,-4.97721 z m 81.88238,3.54839 c 0.6489,-1.04366 3.82666,-4.04683 7.0617,-6.67369 4.45799,-3.61992 5.64114,-5.06621 4.88741,-5.97441 -0.54697,-0.65904 -1.81192,-0.9845 -2.81101,-0.72323 -2.29992,0.60144 -12.17703,11.77256 -12.17703,13.77235 0,2.08379 1.62753,1.86902 3.03893,-0.40102 z m -29.58601,-2.02821 c -0.29927,-0.74787 -0.52142,-0.52573 -0.5664,0.56641 -0.0407,0.98827 0.18086,1.54199 0.49239,1.23047 0.31152,-0.31153 0.34482,-1.12013 0.074,-1.79688 z m -7.748348,-8.83077 c 2.137528,-0.82025 1.824234,-1.95452 -0.715938,-2.59207 -1.209376,-0.30353 -6.588282,-2.60364 -11.953125,-5.11136 -10.449769,-4.8846 -23.226302,-9.64912 -25.918305,-9.66524 -5.139702,-0.0307 -6.768238,1.59187 -6.790348,6.76584 -0.01687,3.94946 0.420472,4.5653 2.800167,3.94299 1.16959,-0.30585 1.865517,-1.46184 2.055089,-3.41366 0.217407,-2.23841 0.796107,-3.02356 2.396013,-3.25078 1.785071,-0.25352 2.109375,0.13256 2.109375,2.51116 0,1.54591 0.632813,3.44355 1.40625,4.21699 0.773438,0.77344 1.40625,2.28014 1.40625,3.34821 0,1.59645 0.625501,1.96458 3.515625,2.06909 5.212853,0.18848 25.844285,1.3936 27.110825,1.58359 0.602358,0.0904 1.762515,-0.0918 2.578122,-0.40476 z m 20.328908,-0.8372 c -0.002,-0.51563 -1.18413,-1.2266 -2.62764,-1.57993 -1.44353,-0.35334 -4.15393,-1.03531 -6.02314,-1.51549 -1.8692,-0.48019 -8.106956,-3.24968 -13.861692,-6.15444 -5.754732,-2.90477 -10.869919,-5.28139 -11.367079,-5.28139 -2.02677,0 -0.681042,1.98849 2.846071,4.20545 2.0625,1.29638 5.49509,3.51721 7.627978,4.93517 7.043447,4.68257 8.720963,5.35245 14.872022,5.93881 7.47197,0.71227 8.53737,0.64383 8.53348,-0.54818 z m 18.35694,-1.58203 c -0.29927,-0.74787 -0.52142,-0.52573 -0.5664,0.56641 -0.0407,0.98827 0.18086,1.54199 0.49239,1.23047 0.31152,-0.31153 0.34482,-1.12013 0.074,-1.79688 z M 120.9375,243.75 c 0,-1.03125 -0.1961,-1.875 -0.43577,-1.875 -0.23967,0 -0.88732,0.84375 -1.43923,1.875 -0.80092,1.49653 -0.71296,1.875 0.43577,1.875 0.81423,0 1.43923,-0.81424 1.43923,-1.875 z m -61.875,-0.0294 c 0,-1.35763 -2.503918,-2.1646 -4.426852,-1.42669 -1.382919,0.53067 -1.416518,0.74459 -0.234375,1.49219 1.854724,1.17297 4.661227,1.13353 4.661227,-0.0655 z m 65.15625,0.0294 c 0.31868,-0.51563 0.13264,-0.9375 -0.41342,-0.9375 -0.54605,0 -0.99283,0.42187 -0.99283,0.9375 0,0.51562 0.18604,0.9375 0.41342,0.9375 0.22738,0 0.67415,-0.42188 0.99283,-0.9375 z M 110.625,236.79543 c 0,-2.45593 -1.53791,-3.35793 -5.7253,-3.35793 -2.52296,0 -4.5872,0.42187 -4.5872,0.9375 0,0.51562 1.16016,0.94396 2.57813,0.95185 1.41796,0.007 3.21093,0.42331 3.98437,0.92315 1.42807,0.92288 3.75,1.26061 3.75,0.54543 z m -35.131472,-8.8019 c -0.327513,-0.32751 -0.941345,-0.0358 -1.36407,0.64813 -0.630651,1.02041 -1.168337,0.99076 -2.9959,-0.16522 -2.751309,-1.74028 -13.014493,-4.7205 -13.744012,-3.99099 -1.256254,1.25626 6.872572,4.84551 16.672954,7.36187 1.425957,0.36613 2.570005,-2.71481 1.431028,-3.85379 z m 6.311421,-0.90145 c -0.734125,-1.9131 -3.48701,-0.9232 -3.815256,1.37191 -0.265076,1.85343 -0.08333,1.9403 2.001037,0.95664 1.298255,-0.61267 2.085113,-1.62261 1.814219,-2.32855 z m 26.250621,1.12533 c 7.42095,-1.2888 4.16049,-2.27991 -7.50024,-2.27991 -8.032038,0 -12.425567,-0.37024 -13.164705,-1.10937 -0.610157,-0.61016 -1.432813,-0.78328 -1.828125,-0.38472 -0.395313,0.39856 0.546875,1.76416 2.09375,3.03466 2.583365,2.12182 3.385338,2.27097 9.84375,1.83071 3.86719,-0.26362 8.61719,-0.75475 10.55557,-1.09137 z M 89.0625,222.65625 c 0,-0.77344 -0.421875,-1.40625 -0.9375,-1.40625 -0.515625,0 -0.9375,0.63281 -0.9375,1.40625 0,0.77344 0.421875,1.40625 0.9375,1.40625 0.515625,0 0.9375,-0.63281 0.9375,-1.40625 z m 1.794041,-9.46736 c -0.594019,-1.49608 -1.254542,-2.2567 -1.467827,-1.69028 -0.213285,0.56643 0.09823,2.25393 0.692245,3.75 0.594019,1.49608 1.254542,2.2567 1.467827,1.69028 0.213285,-0.56643 -0.09823,-2.25393 -0.692245,-3.75 z m 12.697169,-4.99911 c 0.29666,-0.48 0.11062,-1.13771 -0.41342,-1.46158 -0.52403,-0.32387 -0.95279,0.0688 -0.95279,0.87272 0,1.64675 0.56256,1.88921 1.36621,0.58886 z M 55.3125,205.34102 c 0,-1.03807 -3.49771,-7.54734 -4.775847,-8.8879 -0.467035,-0.48984 -0.849153,-1.83603 -0.849153,-2.99154 0,-1.15551 -0.421875,-2.36166 -0.9375,-2.68033 -0.515625,-0.31868 -0.9375,-1.36983 -0.9375,-2.3359 0,-2.20582 -3.069877,-3.25031 -5.589588,-1.90181 -2.460185,1.31666 -2.45017,4.62594 0.02735,9.03695 1.448271,2.57853 1.650581,3.62752 0.80089,4.15265 -0.694616,0.4293 -0.858919,1.37765 -0.422363,2.43787 0.472908,1.1485 0.862519,1.33899 1.152234,0.56336 0.598146,-1.60134 2.61414,-1.47341 4.05028,0.25704 2.356298,2.83916 1.936225,0.49388 -1.003178,-5.60079 -1.649721,-3.42059 -2.767879,-6.45087 -2.484794,-6.73395 0.772339,-0.77234 7.169123,8.30861 7.195928,10.21543 0.02672,1.90045 2.006178,5.3779 3.061257,5.3779 0.391593,0 0.711987,-0.40904 0.711987,-0.90898 z m 9.375,-2.73939 c 0,-0.45973 -1.017382,-1.09121 -2.260848,-1.4033 -1.766676,-0.44341 -2.401447,-1.39963 -2.904091,-4.37476 -0.619857,-3.6689 -0.747277,-3.78446 -3.504901,-3.17879 -2.338758,0.51368 -2.760469,0.36484 -2.307885,-0.81459 0.304575,-0.7937 -0.05396,-1.94747 -0.796751,-2.56394 -1.105902,-0.91782 -1.350524,-0.74829 -1.350524,0.93592 0,2.29937 2.021927,4.73533 3.930472,4.73533 0.688545,0 2.294833,1.6875 3.569528,3.75 2.055184,3.32536 5.625,5.17477 5.625,2.91413 z m 75,-1.97663 c 0,-0.51563 -0.84375,-0.9375 -1.875,-0.9375 -1.03125,0 -1.875,0.42187 -1.875,0.9375 0,0.51562 0.84375,0.9375 1.875,0.9375 1.03125,0 1.875,-0.42188 1.875,-0.9375 z M 38.984993,193.62727 c -0.86513,-1.82312 -1.904732,-3.31477 -2.310228,-3.31477 -1.881194,0 -1.708298,1.42835 0.527762,4.35998 2.996135,3.92813 3.892931,3.40227 1.782465,-1.04521 z m 109.340507,3.20779 c 4.04248,-1.12272 4.10665,-1.19798 4.97712,-5.83802 0.54096,-2.88355 0.41069,-3.42411 -0.72059,-2.99 -0.7595,0.29145 -1.9368,1.56859 -2.61621,2.83807 -1.24013,2.31719 -5.67287,5.09239 -8.13394,5.09239 -0.72464,0 -1.0568,0.42188 -0.73813,0.9375 0.73668,1.19197 2.83789,1.18037 7.23175,-0.0399 z m 20.20693,-0.89756 c -1.34368,-2.15157 -2.59493,-2.45294 -2.59493,-0.625 0,1.59383 0.90905,2.5 2.50794,2.5 1.02327,0 1.03949,-0.3498 0.087,-1.875 z M 107.34375,195 c 0.34939,-0.56532 -0.90932,-0.9375 -3.1706,-0.9375 -2.0625,0 -4.01072,0.42187 -4.3294,0.9375 -0.349388,0.56532 0.90932,0.9375 3.1706,0.9375 2.0625,0 4.01072,-0.42188 4.3294,-0.9375 z m 36.09375,-1.875 c 0,-0.51563 -0.81533,-0.9375 -1.81182,-0.9375 -0.99651,0 -2.07962,-0.84375 -2.40693,-1.875 -0.64523,-2.03297 -1.88506,-2.43814 -2.82195,-0.92221 -1.04342,1.68829 -2.33445,-0.0397 -2.32907,-3.1175 0.01,-5.7042 2.03654,-10.41113 6.66114,-15.47117 6.5955,-7.21652 6.32115,-7.88794 -1.99211,-4.87542 -5.79043,2.09832 -7.46707,3.79359 -11.34014,11.4661 -3.26999,6.47781 -3.58388,12.04544 -0.83412,14.7952 1.5625,1.5625 3.125,1.875 9.375,1.875 4.375,0 7.5,-0.39063 7.5,-0.9375 z M 71.25,192.40981 c 0,-0.39336 -0.837658,-1.13164 -1.861463,-1.64063 -7.944528,-3.94965 -19.911683,-10.55123 -23.151201,-12.77117 -2.155404,-1.47704 -4.298959,-2.68551 -4.763457,-2.68551 -1.347952,0 -5.342667,9.25621 -4.401079,10.1978 0.720187,0.72018 3.2397,-2.61088 3.2397,-4.28323 0,-1.94093 1.648355,-1.48251 8.790836,2.44477 3.672852,2.01951 9.184563,4.54725 12.248245,5.6172 3.063681,1.06995 5.995712,2.37075 6.515625,2.89067 1.109015,1.10901 3.382794,1.26367 3.382794,0.2301 z m 28.359375,-1.7807 c -0.644531,-0.26007 -1.699219,-0.26007 -2.34375,0 -0.644531,0.26007 -0.117188,0.47287 1.171875,0.47287 1.289062,0 1.81641,-0.2128 1.171875,-0.47287 z m 48.129115,-0.0966 c 0.56085,-0.37882 1.25127,-1.53252 1.53425,-2.56377 0.283,-1.03125 0.83201,-2.71875 1.22003,-3.75 0.7055,-1.875 0.7055,-1.875 -1.12967,0 -2.04351,2.08786 -4.39144,7.03926 -3.32738,7.0169 0.37567,-0.007 1.14191,-0.3243 1.70277,-0.70313 z m 25.69901,-2.6191 c 0,-1.25863 -0.37267,-2.28842 -0.82816,-2.28842 -1.00325,0 -2.08927,3.75928 -1.40558,4.86548 0.85539,1.38406 2.23374,-0.20613 2.23374,-2.57706 z M 33.75,185.15625 c 0,-0.77344 -0.396977,-1.40625 -0.882172,-1.40625 -1.182166,0 -2.028839,1.46399 -1.279841,2.21299 1.055798,1.05579 2.162013,0.64302 2.162013,-0.80674 z m 88.14818,-1.44957 c 0.56466,-1.05507 0.89591,-3.2369 0.73611,-4.8485 -0.24132,-2.43379 -0.7474,-2.99045 -2.98737,-3.2859 -2.30323,-0.30381 -2.58895,-0.10926 -1.95765,1.33287 0.40655,0.92873 0.92615,3.27063 1.15468,5.20422 0.46372,3.92365 1.51497,4.47345 3.05423,1.59731 z M 112.5,175.83658 c 0,-0.22738 -0.42187,-0.67415 -0.9375,-0.99283 -0.51562,-0.31868 -0.9375,-0.13264 -0.9375,0.41342 0,0.54605 0.42188,0.99283 0.9375,0.99283 0.51563,0 0.9375,-0.18604 0.9375,-0.41342 z m 83.4375,-1.57223 c 0,-0.51563 -0.42188,-0.67678 -0.9375,-0.3581 -0.51563,0.31868 -0.9375,1.00128 -0.9375,1.5169 0,0.51563 0.42187,0.67678 0.9375,0.3581 0.51562,-0.31868 0.9375,-1.00128 0.9375,-1.5169 z M 39.548597,170.78937 c 1.140902,-2.63346 1.414484,-5.11773 1.030249,-9.35515 -0.64225,-7.08284 0.05082,-7.52902 8.430666,-5.42743 8.080915,2.02661 11.955622,1.97835 11.834538,-0.14742 -0.236044,-4.14403 -1.476064,-6.2394 -4.153419,-7.0184 -8.163397,-2.37523 -12.907759,-3.52847 -14.515887,-3.52847 -3.313651,0 -3.947907,-3.20119 -3.59905,-18.16496 0.181806,-7.79833 -0.03278,-14.38973 -0.47687,-14.64754 -2.134748,-1.23933 -5.286324,14.01037 -5.286324,25.57924 0,8.04654 -0.0259,8.13601 -2.765944,9.55293 -1.521269,0.78668 -3.658379,1.43033 -4.749133,1.43033 -3.956316,0 -5.609923,1.69913 -5.609923,5.76439 0,3.80588 0.01398,3.8208 3.046875,3.25171 1.675781,-0.31444 4.583346,-0.83364 6.461254,-1.15377 l 3.414379,-0.58205 0.962187,4.56299 c 0.529202,2.50964 1.255476,6.56689 1.613942,9.0161 0.788093,5.38464 2.277203,5.68076 4.36246,0.8675 z m 75.388903,0.30438 c 0,-3.64633 -1.32148,-4.19333 -3.7221,-1.54067 -1.64791,1.82092 -1.04771,2.94274 2.2221,4.15328 0.77344,0.28634 1.42734,0.55392 1.45312,0.59462 0.0258,0.0407 0.0469,-1.40254 0.0469,-3.20723 z m 73.5,-2.39031 c 0,-4.21862 -1.61014,-7.94972 -4.59727,-10.65303 -2.95382,-2.67318 -3.21318,-1.34644 -0.64341,3.2914 1.25767,2.26982 2.57641,5.70897 2.93052,7.64257 0.85484,4.66784 2.31016,4.49086 2.31016,-0.28094 z m -80.625,1.1119 c 0,-0.44531 1.09205,-1.90171 2.42678,-3.23643 1.33472,-1.33473 2.15357,-2.86883 1.81966,-3.4091 -0.9531,-1.54215 -2.37069,-1.14983 -2.37875,0.65832 -0.004,0.90234 -1.01937,2.10971 -2.25634,2.68304 -1.89129,0.8766 -2.67301,0.69557 -4.91456,-1.13816 -3.031681,-2.48011 -4.086753,-2.76131 -4.037628,-1.07613 0.0735,2.52212 9.340838,7.99715 9.340838,5.51846 z m 52.67187,-5.95597 c -0.67271,-0.67271 -1.10937,-0.72806 -1.10937,-0.14062 0,0.53282 0.28125,1.25 0.625,1.59375 0.34375,0.34375 0.84297,0.40703 1.10938,0.14062 0.2664,-0.2664 -0.0148,-0.98359 -0.62501,-1.59375 z m 33.72456,-4.30838 c -2.61674,-1.73746 -2.72128,-4.25089 -0.14643,-3.52042 1.03125,0.29257 2.66879,0.75544 3.63898,1.02862 2.45893,0.69237 3.31642,-2.10116 1.4972,-4.87764 -1.59709,-2.43747 -10.65028,-6.86905 -14.03265,-6.86905 -2.2228,0 -7.04103,3.27013 -7.04103,4.77875 0,0.49096 1.16016,1.3128 2.57812,1.8263 5.1464,1.86372 6.63881,3.05089 8.20699,6.52851 1.88439,4.17882 5.16244,6.15884 6.47069,3.90846 0.6172,-1.06165 0.29667,-1.82847 -1.17187,-2.80353 z m -44.53244,1.27069 c -0.30533,-0.79567 -0.99026,-1.44668 -1.52207,-1.44668 -1.37394,0 -1.20249,2.57212 0.20495,3.07478 1.59265,0.56879 1.97757,0.093 1.31712,-1.6281 z m -51.618668,-0.61677 c 0.982265,-1.09042 2.835708,-2.38384 4.118798,-2.87427 l 2.33285,-0.89167 -2.33285,-1.79239 c -1.28309,-0.98581 -2.543808,-1.80101 -2.80162,-1.81156 -0.552881,-0.0226 -5.625,7.86525 -5.625,8.74766 0,1.32909 2.626059,0.4892 4.307822,-1.37777 z m 9.816308,1.01211 c 2.61448,-1.39923 2.22925,-2.78433 -0.76475,-2.74971 -2.4554,0.0284 -5.85938,1.84119 -5.85938,3.12042 0,0.95417 4.63302,0.6949 6.62413,-0.37071 z m 50.56337,-0.50788 c 0,-2.11497 -5.13195,-6.95914 -7.37256,-6.95914 -3.36984,0 -2.90897,1.42994 1.57387,4.88311 5.01041,3.85956 5.79869,4.14177 5.79869,2.07603 z m 12.1875,-2.74039 c -0.6419,-0.77344 -1.85371,-1.39283 -2.69291,-1.37644 -1.28187,0.025 -1.23487,0.2499 0.29397,1.40625 2.36863,1.79155 3.89479,1.77258 2.39894,-0.0298 z m -26.46485,-0.64453 c -0.57944,-1.73833 -2.59765,-2.02665 -2.59765,-0.37109 0,0.8164 0.66797,1.48437 1.48437,1.48437 0.81641,0 1.31739,-0.50098 1.11328,-1.11328 z m 28.8086,-3.57422 c -0.31868,-0.51563 -1.21222,-0.9375 -1.98565,-0.9375 -0.77344,0 -1.14553,0.42187 -0.82685,0.9375 0.31868,0.51562 1.21222,0.9375 1.98565,0.9375 0.77344,0 1.14553,-0.42188 0.82685,-0.9375 z m -77.912166,-1.48459 c 0.350372,-0.91304 0.14085,-1.34164 -0.544228,-1.11328 -1.401409,0.46714 -2.173025,2.59787 -0.940783,2.59787 0.50343,0 1.17168,-0.66806 1.485011,-1.48459 z M 86.25,151.5601 c 0,-1.81473 -6.63826,-10.06143 -7.613749,-9.45855 -1.836342,1.13492 -0.733629,5.35537 2.087894,7.99107 3.093287,2.88956 5.525855,3.53557 5.525855,1.46748 z m 84.88325,-1.62401 c 0.3404,-0.55078 1.15006,-0.7976 1.79924,-0.54848 0.64918,0.24912 2.53922,-0.98775 4.20008,-2.74859 1.66087,-1.76084 3.40736,-3.20152 3.88109,-3.20152 1.87247,0 0.69596,-1.78737 -2.36547,-3.59366 -3.51712,-2.07515 -5.02442,-6.41057 -3.85236,-11.08044 0.71708,-2.85708 6.26282,-8.78514 8.15729,-8.71965 0.6961,0.0241 2.12153,1.78593 3.16763,3.91526 1.24134,2.52672 2.81664,4.17637 4.53516,4.74921 3.55078,1.1836 5.31062,-0.46131 3.10319,-2.90051 -0.86438,-0.95513 -1.5716,-2.35729 -1.5716,-3.1159 0,-2.21076 -2.02478,-3.62931 -5.18033,-3.62931 -1.91353,0 -3.69435,-0.81326 -5.13217,-2.34375 -1.21102,-1.28906 -3.08912,-2.34375 -4.17357,-2.34375 -2.8971,0 -6.13585,2.61583 -6.15978,4.97503 -0.0114,1.13093 -0.84583,3.11091 -1.85415,4.39997 -1.00832,1.28906 -1.84268,3.52803 -1.85415,4.97548 -0.0114,1.44745 -0.4977,4.52549 -1.08052,6.84009 -1.0173,4.04006 -0.94055,4.3566 1.91917,7.91514 2.80588,3.49154 2.86196,3.70679 0.96593,3.70679 -1.85946,0 -5.57085,-3.20434 -9.55063,-8.24582 -1.75323,-2.22095 -3.5248,-2.72804 -3.5248,-1.00893 0,0.58177 1.29659,3.32396 2.8813,6.09375 2.43104,4.24902 3.30142,5.036 5.56967,5.036 1.47861,0 2.9491,0.42187 3.26778,0.9375 0.75656,1.22414 2.07419,1.19461 2.852,-0.0639 z m -1.95305,-9.37346 c -0.33987,-0.54993 -0.39284,-1.22499 -0.1177,-1.50013 0.67155,-0.67154 2.5,0.51171 2.5,1.61783 0,1.1981 -1.61851,1.11813 -2.3823,-0.1177 z m -75.841276,7.50819 c 2.057138,-1.93258 10.278446,-4.6013 14.239196,-4.62219 3.12698,-0.0165 3.12423,-0.0221 -4.37075,-8.91738 -0.43446,-0.51563 -1.68541,-1.67166 -2.7799,-2.56895 -1.434736,-1.17625 -2.008354,-2.74571 -2.055867,-5.625 -0.03628,-2.19646 -0.401306,-4.8373 -0.811266,-5.86855 -0.40995,-1.03125 -0.376396,-2.86196 0.07462,-4.06824 0.7908,-2.11528 0.692035,-2.17164 -2.778075,-1.58537 -2.672854,0.45157 -3.90992,0.23208 -4.810977,-0.85362 C 89.378742,113.15768 87.881542,112.5 86.71875,112.5 c -1.162792,0 -2.585169,-0.56753 -3.16084,-1.26116 -1.252728,-1.50945 -22.359567,-2.65575 -29.65166,-1.61038 -4.79549,0.68747 -4.399547,1.35411 1.40625,2.36767 11.123922,1.94198 15.434074,2.24801 19.854249,1.40975 5.941598,-1.1268 6.395751,-1.12545 6.395751,0.019 0,0.50871 -1.582031,1.59933 -3.515625,2.4236 -3.520417,1.50073 -14.686033,1.43362 -21.09375,-0.12678 -2.040393,-0.49688 -2.578125,-0.29854 -2.578125,0.95089 0,1.18301 0.499315,1.42024 1.992043,0.94648 1.105676,-0.35094 2.269206,-0.1838 2.614946,0.37562 0.342598,0.55434 2.009501,1.11354 3.70423,1.24267 1.694729,0.12913 3.295694,0.58164 3.557701,1.00558 0.262006,0.42393 1.346386,0.49466 2.409732,0.15716 1.692361,-0.53713 1.843611,-0.33737 1.213383,1.6025 -1.334653,4.10812 -1.722709,10.47671 -0.595944,9.78033 0.572775,-0.35399 1.041409,-1.81954 1.041409,-3.25676 0,-2.72024 2.270598,-8.08064 3.831478,-9.04531 1.118557,-0.69132 0.180864,6.70614 -1.21644,9.59648 -0.544049,1.12538 -0.717194,2.75492 -0.384766,3.62121 1.085655,2.82918 3.394331,-0.30293 3.398232,-4.61025 0.0034,-3.80389 2.840659,-9.96334 4.589386,-9.96334 0.478748,0 0.06307,2.20889 -0.923719,4.90864 -1.769078,4.83999 -2.542092,15.06323 -1.007606,13.32574 0.432612,-0.48985 1.348458,-3.33607 2.035214,-6.32494 1.115445,-4.8546 2.303908,-7.09625 3.256956,-6.14321 0.180944,0.18095 -0.101641,2.43804 -0.627966,5.01576 -1.254976,6.14634 -1.001454,10.83843 0.686392,12.70348 0.749561,0.82825 1.362839,1.94315 1.362839,2.47754 0,1.44415 3.725347,5.91199 4.929496,5.91199 0.573875,0 1.967492,-0.86813 3.096928,-1.92918 z m -5.777403,-10.77073 c -0.550514,-2.19342 0.02369,-4.08988 0.956025,-3.15755 1.058125,1.05813 1.595778,5.54496 0.664448,5.54496 -0.5617,0 -1.290912,-1.07434 -1.620473,-2.38741 z m 66.996469,8.24678 c -6.78822,-8.20333 -7.34063,-26.5404 -0.77514,-25.73057 5.38561,0.66429 6.0609,0.59479 6.0609,-0.62372 0,-0.7019 -1.58526,-1.90846 -3.52279,-2.68126 -3.18768,-1.27141 -3.74904,-1.25682 -5.90122,0.15334 -3.51115,2.30058 -4.43171,5.64467 -3.73591,13.5714 0.69366,7.90245 2.15299,12.04472 5.26463,14.94367 2.58763,2.41075 4.52631,2.6835 2.60953,0.36714 z m 35.31874,-7.37344 c 1.27092,-0.83275 2.31077,-2.05048 2.31077,-2.7061 0,-1.80188 -5.53438,-2.29902 -7.18776,-0.64565 -1.13703,1.13704 -1.34861,1.15268 -1.13926,0.0842 0.41865,-2.13658 -1.11871,-5.6632 -2.29941,-5.27471 -0.60078,0.19768 -1.2361,1.34398 -1.41181,2.54734 -0.2471,1.69213 -0.5094,1.88793 -1.15752,0.86407 -0.72028,-1.13785 -0.84005,-1.13664 -0.85239,0.008 -0.0208,1.92962 2.81199,4.76132 4.76312,4.76132 0.92091,0 1.9351,0.42188 2.25378,0.9375 0.81649,1.32112 2.05516,1.16982 4.72048,-0.57657 z M 120,137.8125 c 0,-0.51563 -0.18604,-0.9375 -0.41342,-0.9375 -0.22738,0 -0.67415,0.42187 -0.99283,0.9375 -0.31868,0.51562 -0.13264,0.9375 0.41342,0.9375 0.54605,0 0.99283,-0.42188 0.99283,-0.9375 z m 79.6875,-0.9375 c 0,-0.51563 -0.42188,-0.9375 -0.9375,-0.9375 -0.51563,0 -0.9375,0.42187 -0.9375,0.9375 0,0.51562 0.42187,0.9375 0.9375,0.9375 0.51562,0 0.9375,-0.42188 0.9375,-0.9375 z m -80.625,-5.21158 c 0,-0.80387 -0.42876,-1.19659 -0.95279,-0.87272 -0.52404,0.32387 -0.71008,0.98158 -0.41342,1.46158 0.80365,1.30035 1.36621,1.05789 1.36621,-0.58886 z m -96.395006,-4.63217 c 1.013976,-1.28906 2.599831,-2.34375 3.524119,-2.34375 2.744419,0 6.620887,-3.64376 6.620887,-6.22342 0,-1.28554 0.41301,-3.10906 0.9178,-4.05227 2.104807,-3.93287 -5.194138,-4.64981 -9.213699,-0.90502 -2.708467,2.52332 -6.291811,15.86821 -4.260901,15.86821 0.31251,0 1.397817,-1.05469 2.411794,-2.34375 z m 174.929996,-8.72997 c 0.20401,-0.61204 -0.31516,-1.37607 -1.15371,-1.69785 -1.95568,-0.75047 -2.58348,-0.0962 -1.81909,1.89576 0.65668,1.71129 2.37452,1.59692 2.9728,-0.19791 z M 44.496033,105.61252 c 1.782991,-2.05347 2.378519,-2.16274 8.941467,-1.64063 9.026926,0.71813 18.75,0.25576 18.75,-0.89163 0,-0.49101 -1.094183,-0.89276 -2.431519,-0.89276 -1.560713,0 -2.59092,-0.60955 -2.876611,-1.70204 -0.318908,-1.219501 -2.220957,-2.117888 -6.709107,-3.168873 l -6.264013,-1.466831 -2.938941,3.168872 c -3.531059,3.807322 -4.329464,3.971442 -3.513999,0.722372 0.548173,-2.184094 0.150519,-1.982991 -3.707467,1.875 -2.376825,2.37682 -4.754478,4.3215 -5.283672,4.3215 -0.529194,0 -0.962171,0.42188 -0.962171,0.9375 0,1.854 5.087123,0.936 6.996033,-1.26248 z M 63.75,93.75 c 1.007846,-0.651321 0.02752,-0.912856 -3.460297,-0.923144 -2.676601,-0.0079 -5.127279,0.407519 -5.445953,0.923144 -0.754956,1.221544 7.016046,1.221544 8.90625,0 z m 37.57668,-5.625 c 0.47344,0 0.86082,-1.446428 0.86082,-3.214285 0,-1.804946 0.71568,-3.929968 1.63225,-4.846541 1.17365,-1.173641 1.30535,-1.741224 0.46875,-2.020089 -1.59843,-0.532814 -1.47506,-3.981585 0.14245,-3.981585 1.77176,0 2.50837,-2.256516 1.83526,-5.622083 -0.54715,-2.73572 -0.48837,-2.784844 3.07236,-2.567871 l 3.63018,0.221204 0.29167,-4.053661 c 0.16041,-2.229514 -0.20765,-4.655295 -0.81793,-5.390625 -1.35254,-1.62972 -4.78458,-1.744871 -6.31749,-0.211964 -0.875,0.875 -1.375,0.875 -2.25,0 -0.61875,-0.61875 -2.29914,-1.125 -3.7342,-1.125 -2.167241,0 -2.996028,0.754312 -4.892797,4.453125 -1.255969,2.449219 -4.614079,6.735326 -7.462463,9.524683 -4.967252,4.864315 -5.126754,5.170794 -3.903231,7.5 2.808349,5.346219 12.55225,12.845666 15.334994,11.802663 0.6867,-0.257384 1.635917,-0.467971 2.109377,-0.467971 z m 91.70071,-11.164691 c 0.5693,-4.335893 1.03511,-11.596691 1.03511,-16.135108 0,-4.538416 0.3967,-12.381493 0.88156,-17.429058 2.2357,-23.274458 3.1056,-39.7839862 2.14675,-40.7428327 -2.35275,-2.35274771 -3.40154,4.8248869 -4.54384,31.0966897 -0.28024,6.445312 -0.89529,13.195312 -1.36678,15 -1.12032,4.288253 -1.1458,38.169908 -0.0278,36.984375 0.46193,-0.489844 1.30568,-4.438174 1.875,-8.774066 z M 47.34375,84.348477 c 5.97646,-0.84411 8.564754,-1.529439 14.0625,-3.723477 1.03125,-0.41155 3.284471,-1.279804 5.007158,-1.929451 C 70.857835,77.019501 79.537119,71.240928 83.68893,67.193696 85.631903,65.299663 87.624976,63.75 88.117979,63.75 c 1.189902,0 4.067245,-5.627275 3.27992,-6.414602 -0.603143,-0.603141 -3.423579,2.339798 -7.831551,8.171706 -2.597766,3.436941 -4.095715,3.651029 -6.778024,0.96872 -1.299109,-1.299109 -2.644853,-1.778401 -3.984375,-1.419051 -1.112484,0.298444 -5.503168,0.548385 -9.757074,0.555425 -6.244311,0.01033 -7.734375,0.283723 -7.734375,1.419052 0,1.703233 1.525977,1.864978 2.211212,0.234375 0.358596,-0.853325 0.761493,-0.749605 1.482165,0.38156 0.601655,0.944354 1.720238,1.362394 2.852903,1.066196 1.02476,-0.267981 2.54983,-0.223752 3.389045,0.09829 1.236458,0.474473 1.306246,0.850122 0.367968,1.980677 -0.636832,0.767337 -0.789814,1.409192 -0.33996,1.426347 2.298951,0.08767 -4.038308,3.724852 -6.551568,3.760185 -3.330818,0.04683 -11.413182,2.022542 -12.428842,3.038202 C 45.926691,79.38581 47.59375,79.6875 50,79.6875 c 6.418665,0 5.334653,1.630275 -1.484375,2.232392 -11.578852,1.022406 -15.693367,1.712444 -15.178478,2.545551 0.674561,1.091462 5.750836,1.049071 14.006603,-0.116966 z M 66.592315,72.421875 c 0.05332,-1.257248 2.747885,-4.331676 3.306705,-3.772854 0.646242,0.646241 -1.599362,4.475979 -2.624533,4.475979 -0.391593,0 -0.698569,-0.316406 -0.682172,-0.703125 z m -24.93439,5.786272 c 1.896911,-1.896912 3.623514,-5.114207 3.051555,-5.686168 -0.243338,-0.243338 -1.360934,0.847482 -2.483545,2.424044 -1.122612,1.576562 -2.831236,2.866477 -3.796945,2.866477 -0.965708,0 -2.016566,0.421875 -2.33524,0.9375 -0.953963,1.543543 3.957022,1.065299 5.564175,-0.541853 z M 85.602791,50.085103 c 1.724021,-0.411649 2.46147,-1.078652 2.134536,-1.930628 -0.274729,-0.715932 -0.06666,-2.251696 0.462384,-3.412812 0.759749,-1.667467 0.45716,-3.213593 -1.439877,-7.357267 -2.070985,-4.523629 -2.70347,-5.188475 -4.592405,-4.827383 -1.20485,0.230323 -4.007424,2.079474 -6.227942,4.109227 l -4.037303,3.690458 2.227465,2.37103 c 1.84123,1.959898 1.99435,2.515102 0.883062,3.201916 -1.136743,0.702545 -1.077392,1.125933 0.384236,2.741014 0.950752,1.05057 2.064982,1.702257 2.476068,1.448192 0.411084,-0.254064 1.023017,-0.01602 1.359853,0.528992 0.336834,0.54501 1.315204,0.782863 2.174154,0.528563 0.858951,-0.254301 2.747047,-0.745387 4.195769,-1.091302 z M 80.290178,43.59375 c -1.954844,-1.954844 -1.984175,-4.785268 -0.05725,-5.524698 2.168012,-0.831944 2.226783,-0.79709 3.266307,1.937064 0.722087,1.899235 0.635388,2.82355 -0.358026,3.816963 -1.122799,1.122799 -1.531798,1.0899 -2.851028,-0.229329 z M 65.4375,48.5625 c 0.61875,-0.61875 1.125,-1.933556 1.125,-2.921791 0,-1.392604 0.507677,-1.699743 2.256847,-1.365367 2.10649,0.40268 2.188259,0.269428 1.227335,-2.000085 -1.528567,-3.610173 -4.481464,-6.642409 -8.171682,-8.391243 -3.887388,-1.842275 -4.353523,-4.700304 -1.036334,-6.354101 3.279366,-1.634941 5.93718,-0.271321 8.067584,4.139163 1.03125,2.134953 2.296875,3.757997 2.8125,3.606766 C 75.965203,34.030369 68.624372,24.98786 60,20.840569 47.254978,14.711739 45.272973,14.419199 42.735208,18.292317 c -1.191315,1.818176 -1.356082,3.863771 -0.86663,10.759221 0.673702,9.491156 2.193922,12.417655 2.193922,4.223408 0,-2.900267 0.482371,-6.17453 1.071936,-7.276142 0.804248,-1.50275 0.804248,-2.092159 0,-2.360242 -1.517289,-0.505763 -1.333788,-2.076062 0.242603,-2.076062 0.722996,0 1.738043,1.214864 2.255659,2.699698 0.73528,2.109227 0.624776,3.016043 -0.505237,4.146055 -0.966488,0.966488 -1.18909,2.014798 -0.670939,3.159677 0.657181,1.452071 0.830412,1.307399 1.136072,-0.948775 0.320754,-2.367582 0.637877,-2.592516 2.866483,-2.033171 3.191067,0.800906 3.69618,1.328511 2.173077,2.269841 -1.564188,0.966721 -1.031174,6.262729 0.597058,5.932355 0.658879,-0.13369 1.442296,0.393654 1.740926,1.171875 0.70102,1.826827 2.217362,1.832774 2.217362,0.0087 0,-0.773438 0.421875,-1.40625 0.9375,-1.40625 1.705514,0 0.972448,3.665327 -0.9375,4.6875 -2.425484,1.298079 -2.373706,3.162176 0.169064,6.086619 2.193586,2.522845 6.179333,3.127484 8.080936,1.225881 z M 108.75,47.199469 c 0,-1.370674 -6.71924,-12.511969 -7.54588,-12.511969 -1.15611,0 -1.12397,0.513204 0.1916,3.059596 3.96707,7.67865 7.35428,12.03218 7.35428,9.452373 z M 52.5,44.572883 c 0,-1.266164 -1.00065,-3.776656 -2.223666,-5.578871 l -2.223666,-3.276755 -1.995084,2.12367 c -2.624355,2.793497 -2.51886,4.179391 0.373395,4.905301 1.302663,0.326948 2.794069,1.389673 3.314234,2.361611 C 51.071127,47.585331 52.5,47.307855 52.5,44.572883 Z M 99.805987,30.998606 c 0.645293,-1.044113 -5.839331,-6.215266 -6.706503,-5.348089 -0.607772,0.607771 4.325704,6.150548 5.51706,6.198441 0.356287,0.01432 0.891534,-0.368335 1.189443,-0.850352 z M 89.480862,16.439578 c -1.003536,-0.758971 -2.403612,-1.393364 -3.111279,-1.409763 -1.090556,-0.02527 -1.090556,0.220245 0,1.61081 1.95557,2.493542 3.05633,3.058462 4.040943,2.073849 0.568265,-0.568265 0.22891,-1.398672 -0.929664,-2.274896 z"
     id="path3346"
     inkscape:connector-curvature="0" />
</svg>
